<?xml version="1.0" encoding="UTF-8" standalone="no"?><!DOCTYPE svg PUBLIC "-//W3C//DTD SVG 1.1//EN" "http://www.w3.org/Graphics/SVG/1.1/DTD/svg11.dtd"><svg width="100%" height="100%" viewBox="0 0 150 120" version="1.1" xmlns="http://www.w3.org/2000/svg" xmlns:xlink="http://www.w3.org/1999/xlink" xml:space="preserve" xmlns:serif="http://www.serif.com/" style="fill-rule:evenodd;clip-rule:evenodd;stroke-linejoin:round;stroke-miterlimit:1.41421;"><g><g><path d="M91.243,113.345c4.432,1.185 14.884,-4.706 24.573,-14.395c9.689,-9.689 15.58,-20.141 14.395,-24.573c-3.934,5.807 -10.228,13.621 -17.787,21.18c-7.56,7.56 -15.374,13.853 -21.181,17.788Z" style="fill:#0f223e;"/><path d="M135.578,88.729c-2.08,-2.449 -7.067,-2.913 -11.731,-0.76c-4.664,2.154 -7.544,6.252 -7.028,9.423c1.427,-2.25 4.438,-4.932 8.282,-6.708c3.844,-1.775 7.839,-2.328 10.477,-1.955Z" style="fill:#0f223e;"/></g><path d="M108.787,75.04c0,-0.639 0.319,-1.277 0.319,-1.596c6.369,-24.894 -8.917,-54.255 -34.712,-69.575c11.146,15.32 16.241,33.83 11.783,50.107c-0.319,1.596 -0.956,2.872 -1.274,4.149c-0.637,-0.319 -1.274,-0.639 -2.229,-1.277c0,0 -25.477,-15.957 -53.183,-43.723c-0.637,-0.639 14.649,22.34 32.483,40.851c-8.28,-4.787 -31.528,-21.383 -45.858,-34.787c1.91,2.872 3.821,5.744 6.369,8.617c12.101,15.638 28.024,34.787 47.132,49.468c-13.375,8.298 -32.483,8.936 -51.272,0c-4.777,-2.234 -8.917,-4.788 -13.057,-7.979c7.961,12.766 20.381,23.936 35.349,30.319c17.834,7.66 35.668,7.021 48.724,0c5.414,-3.511 20.063,-8.936 27.388,5.426c1.274,2.872 4.777,-14.043 -7.962,-30Z" style="fill:#0f223e;fill-rule:nonzero;"/></g></svg>